<svg xmlns="http://www.w3.org/2000/svg" version="1.1" xmlns:xlink="http://www.w3.org/1999/xlink" xmlns:svgjs="http://svgjs.dev/svgjs" id="BgenPttrnSvgRootPreview" width="100%" height="100%"><defs><pattern x="0" y="0" width="1" height="1" patternUnits="userSpaceOnUse" id="BgenPttrnLayer1"><g id="PatternRootContent1"><g id="BgenPttrnLayer1background"><rect width="1" height="1" id="BgenPttrnBackground1" class="color_1 fill_color_1" fill="#b0b0b0"></rect></g></g></pattern><pattern x="0" y="0" width="73" height="24" patternUnits="userSpaceOnUse" id="BgenPttrnLayer2" patternTransform="matrix(0.4242640687119285,0.42426406871192845,-0.42426406871192845,0.4242640687119285,0,0)"><g id="PatternRootContent2"><g id="BgenPttrnLayer2Element1"><use xlink:href="#BgenPttrnElement1" x="49" y="-30" transform="translate(69, -10) scale(1) translate(-69, 10) rotate(0, 73, -6)"></use><use xlink:href="#BgenPttrnElement1" x="-24" y="-30" transform="translate(-4, -10) scale(1) translate(4, 10) rotate(0, 0, -6)"></use><use xlink:href="#BgenPttrnElement1" x="12.5" y="-18" transform="translate(32.5, 2) scale(1) translate(-32.5, -2) rotate(0, 36.5, 6)"></use><use xlink:href="#BgenPttrnElement1" x="-60.5" y="-18" transform="translate(-40.5, 2) scale(1) translate(40.5, -2) rotate(0, -36.5, 6)"></use><use xlink:href="#BgenPttrnElement1" x="12.5" y="-42" transform="translate(32.5, -22) scale(1) translate(-32.5, 22) rotate(0, 36.5, -18)"></use><use xlink:href="#BgenPttrnElement1" x="49" y="-6" transform="translate(69, 14) scale(1) translate(-69, -14) rotate(0, 73, 18)"></use><use xlink:href="#BgenPttrnElement1" x="-24" y="-6" transform="translate(-4, 14) scale(1) translate(4, -14) rotate(0, 0, 18)"></use><use xlink:href="#BgenPttrnElement1" x="12.5" y="6" transform="translate(32.5, 26) scale(1) translate(-32.5, -26) rotate(0, 36.5, 30)"></use><use xlink:href="#BgenPttrnElement1" x="12.5" y="6" transform="translate(32.5, 26) scale(1) translate(-32.5, -26) rotate(0, 36.5, 30)"></use></g></g></pattern><symbol id="BgenPttrnElement1"><path d="M18.8 33.2L9.7 24l9.2-9.2L16 12 4 24l12 12 2.8-2.8zm10.4 0l9.2-9.2-9.2-9.2L32 12l12 12-12 12-2.8-2.8z" class="color_2 fill_color_2" fill="#5e4d4d"></path></symbol></defs><rect width="100%" height="100%" id="BgenPttrnRctLayer1" fill="url(&quot;#BgenPttrnLayer1&quot;)"></rect><rect width="100%" height="100%" id="BgenPttrnRctLayer2" fill="url(&quot;#BgenPttrnLayer2&quot;)"></rect></svg>